<?xml version="1.0" encoding="utf-8"?>
<!-- Generator: Adobe Illustrator 24.1.0, SVG Export Plug-In . SVG Version: 6.00 Build 0)  -->
<svg version="1.1"
	 id="svg3476" inkscape:version="0.91 r13725" sodipodi:docname="CSS3.svg" xmlns:cc="http://creativecommons.org/ns#" xmlns:dc="http://purl.org/dc/elements/1.1/" xmlns:inkscape="http://www.inkscape.org/namespaces/inkscape" xmlns:rdf="http://www.w3.org/1999/02/22-rdf-syntax-ns#" xmlns:sodipodi="http://sodipodi.sourceforge.net/DTD/sodipodi-0.dtd" xmlns:svg="http://www.w3.org/2000/svg"
	 xmlns="http://www.w3.org/2000/svg" xmlns:xlink="http://www.w3.org/1999/xlink" x="0px" y="0px" viewBox="0 0 290.2 409.6"
	 style="enable-background:new 0 0 290.2 409.6;" xml:space="preserve">
<style type="text/css">
	.st0{fill:#E44D26;}
	.st1{fill:#F16529;}
	.st2{fill:#EBEBEB;}
	.st3{fill:#FFFFFF;}
</style>
<sodipodi:namedview  bordercolor="#666666" borderopacity="1.0" fit-margin-bottom="0" fit-margin-left="0" fit-margin-right="0" fit-margin-top="0" id="base" inkscape:current-layer="layer1" inkscape:cx="181.367" inkscape:cy="256" inkscape:document-units="px" inkscape:pageopacity="0.0" inkscape:pageshadow="2" inkscape:window-height="704" inkscape:window-maximized="1" inkscape:window-width="1366" inkscape:window-x="0" inkscape:window-y="27" inkscape:zoom="0.35" pagecolor="#ffffff" showgrid="false">
	</sodipodi:namedview>
<path d="M33.5,15.6h17.4v17.2h16V15.6h17.4v52.1H66.9V50.4H51.1v17.4H33.5 M107.3,33H91.9V15.6h48.1V33h-15.4v34.8h-17.4
	 M147.7,15.6h18.2L177.1,34l11.2-18.4h18.2v52.1h-17.4V41.9l-12.2,18.7l-12.2-18.7v25.8h-17.1 M215.1,15.6h17.4v34.9h24.6v17.2h-42"
	/>
<path class="st0" d="M32.9,371.5L8,91.6h274.1l-24.9,279.7l-112.3,31.1"/>
<path class="st1" d="M145.1,378.6V114.6h112l-21.4,238.7"/>
<path class="st2" d="M58.9,148.8h86.1v34.3H96.5l3.2,35.1h45.3v34.2H68.3 M69.8,269.7h34.5l2.4,27.4l38.4,10.3v35.8l-70.4-19.6"/>
<path class="st3" d="M230.9,148.8h-86v34.3h82.8 M224.6,218.3h-79.7v34.3h42.3l-4,44.6l-38.3,10.3v35.7l70.3-19.5"/>
</svg>
