<?xml version="1.0" encoding="utf-8"?>
<!-- Generator: Adobe Illustrator 24.1.0, SVG Export Plug-In . SVG Version: 6.00 Build 0)  -->
<svg version="1.1"
	 id="svg3476" inkscape:version="0.91 r13725" sodipodi:docname="CSS3.svg" xmlns:cc="http://creativecommons.org/ns#" xmlns:dc="http://purl.org/dc/elements/1.1/" xmlns:inkscape="http://www.inkscape.org/namespaces/inkscape" xmlns:rdf="http://www.w3.org/1999/02/22-rdf-syntax-ns#" xmlns:sodipodi="http://sodipodi.sourceforge.net/DTD/sodipodi-0.dtd" xmlns:svg="http://www.w3.org/2000/svg"
	 xmlns="http://www.w3.org/2000/svg" xmlns:xlink="http://www.w3.org/1999/xlink" x="0px" y="0px" viewBox="0 0 290.2 409.6"
	 style="enable-background:new 0 0 290.2 409.6;" xml:space="preserve">
<style type="text/css">
	.st0{fill:#FFFFFF;}
</style>
<sodipodi:namedview  bordercolor="#666666" borderopacity="1.0" fit-margin-bottom="0" fit-margin-left="0" fit-margin-right="0" fit-margin-top="0" id="base" inkscape:current-layer="layer1" inkscape:cx="181.367" inkscape:cy="256" inkscape:document-units="px" inkscape:pageopacity="0.0" inkscape:pageshadow="2" inkscape:window-height="704" inkscape:window-maximized="1" inkscape:window-width="1366" inkscape:window-x="0" inkscape:window-y="27" inkscape:zoom="0.35" pagecolor="#ffffff" showgrid="false">
	</sodipodi:namedview>
<g id="Layer_1_1_">
	<g>
		<path class="st0" d="M78.7,102.6h39.1v109.6c0,49.4-23.7,66.6-61.5,66.6c-9.3,0-21.1-1.5-28.8-4.1l4.4-31.7
			c5.4,1.8,12.4,3.1,20.1,3.1c16.5,0,26.8-7.5,26.8-34.2V102.6z"/>
		<path class="st0" d="M151.8,235.9c10.3,5.4,26.8,10.8,43.5,10.8c18,0,27.5-7.5,27.5-19c0-10.6-8.2-17-29.1-24.2
			c-28.8-10.3-47.9-26.2-47.9-51.7c0-29.6,25-52,65.6-52c19.8,0,34,3.9,44.3,8.7l-8.7,31.4c-6.7-3.3-19.3-8.2-36-8.2
			c-17,0-25.2,8-25.2,16.7c0,11.1,9.5,16,32.2,24.7c30.6,11.3,44.8,27.3,44.8,52c0,29.1-22.1,53.8-69.7,53.8
			c-19.8,0-39.4-5.4-49.1-10.8L151.8,235.9z"/>
	</g>
</g>
</svg>
