<?xml version="1.0" encoding="utf-8"?>
<!-- Generator: Adobe Illustrator 24.1.0, SVG Export Plug-In . SVG Version: 6.00 Build 0)  -->
<svg version="1.1"
	 id="svg3476" inkscape:version="0.91 r13725" sodipodi:docname="CSS3.svg" xmlns:cc="http://creativecommons.org/ns#" xmlns:dc="http://purl.org/dc/elements/1.1/" xmlns:inkscape="http://www.inkscape.org/namespaces/inkscape" xmlns:rdf="http://www.w3.org/1999/02/22-rdf-syntax-ns#" xmlns:sodipodi="http://sodipodi.sourceforge.net/DTD/sodipodi-0.dtd" xmlns:svg="http://www.w3.org/2000/svg"
	 xmlns="http://www.w3.org/2000/svg" xmlns:xlink="http://www.w3.org/1999/xlink" x="0px" y="0px" viewBox="0 0 290.2 409.6"
	 style="enable-background:new 0 0 290.2 409.6;" xml:space="preserve">
<style type="text/css">
	.st0{fill:#61DAFB;}
</style>
<sodipodi:namedview  bordercolor="#666666" borderopacity="1.0" fit-margin-bottom="0" fit-margin-left="0" fit-margin-right="0" fit-margin-top="0" id="base" inkscape:current-layer="layer1" inkscape:cx="181.367" inkscape:cy="256" inkscape:document-units="px" inkscape:pageopacity="0.0" inkscape:pageshadow="2" inkscape:window-height="704" inkscape:window-maximized="1" inkscape:window-width="1366" inkscape:window-x="0" inkscape:window-y="27" inkscape:zoom="0.35" pagecolor="#ffffff" showgrid="false">
	</sodipodi:namedview>
<path class="st0" d="M227.7,162.9L227.7,162.9c-2.7-0.9-5.5-1.8-8.3-2.6c0.5-1.9,0.9-3.7,1.3-5.6c6.3-30.4,2.2-54.8-11.8-62.9
	c-13.4-7.7-35.3,0.3-57.4,19.6c-2.2,1.9-4.3,3.9-6.4,5.9c-1.4-1.3-2.8-2.6-4.3-3.9C117.7,92.7,94.4,84,80.5,92.1
	c-13.4,7.7-17.3,30.7-11.7,59.5c0.6,2.8,1.2,5.7,1.9,8.5c-3.3,0.9-6.5,1.9-9.5,3c-27.2,9.5-44.5,24.3-44.5,39.7
	c0,15.9,18.6,31.9,46.9,41.5c2.3,0.8,4.6,1.5,6.9,2.2c-0.8,3-1.4,6.1-2,9.2c-5.4,28.3-1.2,50.7,12.2,58.4
	c13.8,7.9,36.9-0.2,59.4-19.9c1.8-1.6,3.6-3.2,5.4-4.9c2.3,2.2,4.6,4.3,6.9,6.3c21.8,18.8,43.4,26.3,56.7,18.6
	c13.8-8,18.2-32.1,12.4-61.4c-0.4-2.2-1-4.5-1.5-6.9c1.6-0.5,3.2-1,4.8-1.5c29.4-9.7,48.6-25.5,48.6-41.6
	C273.3,187.3,255.4,172.4,227.7,162.9z M158.7,119.6c18.9-16.5,36.7-23,44.7-18.3l0,0c8.6,5,11.9,24.9,6.5,51.2
	c-0.4,1.7-0.7,3.4-1.2,5.1c-11.3-2.6-22.8-4.4-34.3-5.4c-6.6-9.5-13.9-18.5-21.7-27.1C154.7,123.2,156.7,121.4,158.7,119.6z
	 M92.4,216c2.3,4.5,4.7,8.9,7.3,13.3c2.6,4.5,5.3,8.8,8.1,13.2c-7.9-0.9-15.8-2.1-23.7-3.8C86.4,231.3,89.2,223.7,92.4,216z
	 M92.4,190.2c-3.2-7.6-5.9-15-8.2-22.2c7.3-1.6,15.1-3,23.3-4c-2.7,4.2-5.3,8.6-7.9,12.9C97.1,181.3,94.7,185.7,92.4,190.2z
	 M98.2,203.1c3.4-7,7-13.9,10.9-20.7l0,0c3.9-6.8,8-13.4,12.4-19.8c7.6-0.6,15.5-0.9,23.4-0.9s15.8,0.3,23.4,0.9
	c4.4,6.4,8.5,13,12.4,19.7s7.6,13.6,11.1,20.6c-3.4,7.1-7.1,14-11,20.8l0,0c-3.9,6.8-8,13.4-12.3,19.9c-7.6,0.5-15.5,0.8-23.5,0.8
	s-15.8-0.2-23.2-0.7c-4.4-6.5-8.6-13.1-12.5-19.9C105.3,217,101.6,210.1,98.2,203.1z M190.3,229.2c2.6-4.5,5.1-9,7.4-13.6l0,0
	c3.3,7.4,6.1,14.9,8.6,22.6c-7.9,1.8-15.9,3.1-23.9,4.1C185.1,237.9,187.7,233.6,190.3,229.2L190.3,229.2z M197.6,190.2
	c-2.4-4.5-4.8-9-7.4-13.4l0,0c-2.5-4.3-5.1-8.6-7.8-12.8c8.2,1,16,2.4,23.4,4.1C203.5,175.6,200.7,183,197.6,190.2z M145.1,132.9
	c5.3,5.8,10.4,11.9,15.1,18.2c-10.1-0.5-20.2-0.5-30.3,0C134.9,144.5,140,138.4,145.1,132.9z M86,101.6c8.6-5,27.6,2.1,47.6,19.9
	c1.3,1.1,2.6,2.3,3.9,3.6c-7.9,8.5-15.2,17.6-21.9,27.1c-11.5,1-23,2.8-34.2,5.3c-0.7-2.6-1.2-5.3-1.8-7.9l0,0
	C74.7,124.8,77.9,106.3,86,101.6z M73.5,235.9c-2.1-0.6-4.2-1.3-6.3-2c-10.9-3.4-21-8.8-29.9-15.9c-5.2-3.5-8.6-9.1-9.6-15.3
	c0-9.3,13.9-21.3,37.2-29.4c2.9-1,5.9-1.9,8.8-2.8c3.5,11.1,7.6,21.9,12.5,32.4C81.2,213.7,77,224.7,73.5,235.9z M132.9,285.9
	c-8.4,7.7-18.1,13.8-28.7,18l0,0c-5.6,2.7-12.2,2.9-18,0.7c-8.1-4.7-11.5-22.7-6.9-46.9c0.5-2.9,1.2-5.7,1.9-8.5
	c11.4,2.4,23,4.1,34.6,5c6.7,9.5,14.1,18.6,22,27.2C136.2,283,134.5,284.5,132.9,285.9z M145.4,273.5c-5.2-5.6-10.4-11.8-15.4-18.5
	c4.9,0.2,9.9,0.3,15,0.3c5.2,0,10.4-0.1,15.5-0.3C155.8,261.4,150.7,267.6,145.4,273.5L145.4,273.5z M212,288.8
	c-0.5,6.2-3.5,12-8.4,15.9c-8.1,4.7-25.4-1.4-44-17.5c-2.1-1.8-4.3-3.8-6.5-5.9c7.8-8.6,15-17.7,21.5-27.3c11.7-1,23.3-2.8,34.8-5.4
	c0.5,2.1,1,4.2,1.4,6.2l0,0C213.2,266,213.6,277.5,212,288.8L212,288.8z M221.3,234L221.3,234c-1.4,0.5-2.8,0.9-4.3,1.3
	c-3.6-11.1-7.9-22-13-32.5c4.9-10.4,9-21.1,12.5-32c2.6,0.8,5.2,1.6,7.6,2.4c23.7,8.2,38.2,20.3,38.2,29.6
	C262.3,212.7,246.7,225.6,221.3,234L221.3,234z"/>
<path class="st0" d="M145,179.9c12.7,0,22.9,10.3,22.9,22.9c0,12.7-10.3,22.9-22.9,22.9c-12.7,0-22.9-10.3-22.9-22.9l0,0
	C122.1,190.1,132.3,179.9,145,179.9L145,179.9"/>
</svg>
