<?xml version="1.0" encoding="utf-8"?>
<!-- Generator: Adobe Illustrator 24.1.0, SVG Export Plug-In . SVG Version: 6.00 Build 0)  -->
<svg version="1.1"
	 id="svg3476" inkscape:version="0.91 r13725" sodipodi:docname="CSS3.svg" xmlns:cc="http://creativecommons.org/ns#" xmlns:dc="http://purl.org/dc/elements/1.1/" xmlns:inkscape="http://www.inkscape.org/namespaces/inkscape" xmlns:rdf="http://www.w3.org/1999/02/22-rdf-syntax-ns#" xmlns:sodipodi="http://sodipodi.sourceforge.net/DTD/sodipodi-0.dtd" xmlns:svg="http://www.w3.org/2000/svg"
	 xmlns="http://www.w3.org/2000/svg" xmlns:xlink="http://www.w3.org/1999/xlink" x="0px" y="0px" viewBox="0 0 290.2 409.6"
	 style="enable-background:new 0 0 290.2 409.6;" xml:space="preserve">
<style type="text/css">
	.st0{fill:#764ABC;}
</style>
<sodipodi:namedview  bordercolor="#666666" borderopacity="1.0" fit-margin-bottom="0" fit-margin-left="0" fit-margin-right="0" fit-margin-top="0" id="base" inkscape:current-layer="layer1" inkscape:cx="181.367" inkscape:cy="256" inkscape:document-units="px" inkscape:pageopacity="0.0" inkscape:pageshadow="2" inkscape:window-height="704" inkscape:window-maximized="1" inkscape:window-width="1366" inkscape:window-x="0" inkscape:window-y="27" inkscape:zoom="0.35" pagecolor="#ffffff" showgrid="false">
	</sodipodi:namedview>
<g>
	<path class="st0" d="M194.7,253.3c9.5-1,16.7-9.2,16.4-19c-0.3-9.8-8.5-17.7-18.3-17.7h-0.7c-10.2,0.3-18,8.8-17.7,19
		c0.3,4.9,2.3,9.2,5.2,12.1c-11.1,21.9-28.2,38-53.7,51.4c-17.4,9.2-35.4,12.4-53.4,10.2c-14.7-2-26.2-8.5-33.4-19.3
		c-10.5-16-11.5-33.4-2.6-50.8c6.2-12.4,16-21.6,22.3-26.2c-1.3-4.3-3.3-11.5-4.3-16.7C7.1,230.7,12,277.2,26.4,299.1
		c10.8,16.4,32.7,26.5,57,26.5c6.5,0,13.1-0.7,19.6-2.3C145,315.2,176.7,290.3,194.7,253.3z"/>
	<path class="st0" d="M252.4,212.7c-24.9-29.1-61.6-45.2-103.5-45.2h-5.2c-2.9-5.9-9.2-9.8-16-9.8h-0.7c-10.2,0.3-18,8.8-17.7,19
		c0.3,9.8,8.5,17.7,18.3,17.7h0.7c7.2-0.3,13.4-4.9,16-11.1h5.9c24.9,0,48.5,7.2,69.8,21.3c16.4,10.8,28.2,24.9,34.7,41.9
		c5.6,13.8,5.2,27.2-0.7,38.6c-9.2,17.4-24.6,26.9-44.9,26.9c-13.1,0-25.5-3.9-32.1-6.9c-3.6,3.3-10.2,8.5-14.7,11.8
		c14.1,6.5,28.5,10.2,42.2,10.2c31.4,0,54.7-17.4,63.5-34.7C277.6,273.2,276.9,240.5,252.4,212.7z"/>
	<path class="st0" d="M86,258.8c0.3,9.8,8.5,17.7,18.3,17.7h0.7c10.2-0.3,18-8.8,17.7-19c-0.3-9.8-8.5-17.7-18.3-17.7h-0.7
		c-0.7,0-1.6,0-2.3,0.3c-13.4-22.3-19-46.5-17-72.7c1.3-19.6,7.9-36.7,19.3-50.8c9.5-12.1,27.8-18,40.3-18.3
		c34.7-0.7,49.4,42.6,50.4,59.9c4.3,1,11.5,3.3,16.4,4.9c-3.9-53.1-36.7-80.6-68.1-80.6c-29.5,0-56.7,21.3-67.5,52.7
		c-15.1,41.9-5.2,82.2,13.1,114C86.7,251.6,85.7,255.2,86,258.8z"/>
</g>
</svg>
