<svg id="Layer_1" data-name="Layer 1" xmlns="http://www.w3.org/2000/svg" viewBox="0 0 289.52 82.12"><defs><style>.cls-1{fill:#fff;}</style></defs><path d="M264.41,25.93l1.51,1.59c-19.38,23.66-24.72,30.85-44.26,54.37a7.36,7.36,0,0,1-4.85,2.55q-83.9.27-167.79.26c-2.88,0-5.75,0-8.62-.13l-.09-2c57.56,0,115.68-.26,173.24-.21,2.81,0,5.15-.22,7.19-2.77,10-12.46,20.2-24.75,30.32-37.1.45-.55.8-1.18,1.67-2.49h-4.88q-101.5,0-203-.09c-3.08,0-4.93,1.06-6.85,3.6C29.9,54.17,21.7,64.79,12.61,74.64,10.32,77.13,9,79,6.61,81.92c11.57.4,12.66.26,20.6.58-.09.68-.15,1.09-.24,1.78H1.45c3-3.68,5.86-7.22,8.76-10.74,9-10.9,18-21.75,26.84-32.74a8.45,8.45,0,0,1,6.59-3.15q103.18.12,206.38.15c3.55,0,5.92-.87,8.2-3.8m6.19-8.07c1.6-1.37,2.57-2.74,1.55-5A12.85,12.85,0,0,1,270.6,4.75c6-3.65,12.77-2.64,17.27,2.57A12.82,12.82,0,0,1,288,23.84c-4.37,5.33-11.11,6.64-17.08,2.9-2.21-1.39-3.56-.52-5,.78Z" transform="translate(-1.45 -2.58)"/><path class="cls-1" d="M286.47,7.84a11.67,11.67,0,0,1-.94,16.48,12,12,0,0,1-16.58-1,12.16,12.16,0,0,1,1.29-16.87C274.86,2.54,282.33,3.17,286.47,7.84ZM283.08,11a7,7,0,0,0-10-.85,7.4,7.4,0,0,0-.62,10.12,7.17,7.17,0,0,0,9.78.65A6.8,6.8,0,0,0,283.08,11Z" transform="translate(-1.45 -2.58)"/><path d="M283.08,11a6.8,6.8,0,0,1-.85,9.92,7.17,7.17,0,0,1-9.78-.65,7.4,7.4,0,0,1,.62-10.12A7,7,0,0,1,283.08,11Z" transform="translate(-1.45 -2.58)"/></svg>